<svg width="48" height="48" viewBox="0 0 48 48" fill="none" xmlns="http://www.w3.org/2000/svg">
<rect x="0.5" y="0.5" width="47" height="47" stroke="white"/>
<rect width="36" height="36" transform="translate(6 6)" fill="black"/>
<path d="M38.327 16.44C38.0402 14.8565 36.6733 13.7034 35.087 13.3434C32.7133 12.84 28.3202 12.48 23.567 12.48C18.8167 12.48 14.3533 12.84 11.9767 13.3434C10.3933 13.7034 9.02359 14.7834 8.73672 16.44C8.44703 18.24 8.16016 20.76 8.16016 24C8.16016 27.24 8.44703 29.76 8.80703 31.56C9.09672 33.1434 10.4636 34.2965 12.047 34.6565C14.567 35.16 18.887 35.52 23.6402 35.52C28.3933 35.52 32.7133 35.16 35.2333 34.6565C36.8167 34.2965 38.1836 33.2165 38.4733 31.56C38.7602 29.76 39.1202 27.1669 39.1933 24C39.047 20.76 38.687 18.24 38.327 16.44ZM19.6802 29.04V18.96L28.4636 24L19.6802 29.04Z" fill="white"/>
</svg>
