<svg width="50" height="50" viewBox="0 0 50 50" fill="none" xmlns="http://www.w3.org/2000/svg">
<rect width="50" height="50" fill="black"/>
<path d="M19.3258 12.418L17 27.1818L19.4626 27.1818L20.7395 17.4008L19.3714 17.4008C19.4474 16.3089 19.6085 14.1066 19.645 14.0328C19.6815 13.959 19.7514 14.002 19.7818 14.0328C20.8763 15.2785 21.8796 18.2774 22.3812 19.2924C22.8829 20.3074 24.6158 25.4286 24.6614 25.6132C24.707 25.7977 24.7982 26.2423 25.1631 26.4436C25.6647 26.7204 26.0296 26.6282 26.3488 26.4436C26.668 26.2591 26.9074 25.8438 26.7136 25.0595C26.6224 24.6904 25.5468 21.9604 25.4823 21.8299C25.4367 21.7377 23.795 18.4619 22.9741 16.8471C22.1228 15.4169 20.402 12.501 20.3291 12.2796C20.2561 12.0581 20.2987 11.8182 20.3291 11.7259L20.6939 10.1573L20.6939 9.32682C20.6635 9.20379 20.548 8.96695 20.3291 9.00386C20.1102 9.04077 19.9946 9.23455 19.9642 9.32682L19.9642 10.5725C19.8122 10.8647 19.5082 11.5045 19.5082 11.7259C19.5082 11.9474 19.6906 12.1873 19.7818 12.2796L19.3258 12.418Z" fill="white"/>
<path d="M32.4265 12.418L34.7773 27.1818L32.2883 27.1818L30.9976 17.4008L32.3804 17.4008C32.3036 16.3089 32.1408 14.1066 32.1039 14.0328C32.067 13.959 31.9963 14.002 31.9656 14.0328C30.8593 15.2785 29.8453 18.2774 29.3382 19.2924C28.8312 20.3074 27.0796 25.4286 27.0335 25.6132C26.9874 25.7977 26.8952 26.2423 26.5265 26.4436C26.0195 26.7204 25.6507 26.6282 25.328 26.4436C25.0054 26.2591 24.7634 25.8438 24.9593 25.0595C25.0515 24.6904 26.1386 21.9604 26.2038 21.8299C26.2499 21.7377 27.9093 18.4619 28.739 16.8471C29.5994 15.4169 31.3387 12.501 31.4125 12.2796C31.4862 12.0581 31.4432 11.8182 31.4125 11.7259L31.0437 10.1573L31.0437 9.32682C31.0744 9.20379 31.1912 8.96695 31.4125 9.00386C31.6337 9.04077 31.7505 9.23455 31.7812 9.32682L31.7812 10.5725C31.9349 10.8647 32.2422 11.5045 32.2422 11.7259C32.2422 11.9474 32.0578 12.1873 31.9656 12.2796L32.4265 12.418Z" fill="white"/>
<path d="M7.63955 32.688L7.70687 33.6253L5.20757 38.0541C5.20757 38.0541 5.17952 38.1057 5.12342 38.2088C5.06732 38.3063 5.01122 38.4267 4.95512 38.57C4.90463 38.7134 4.87938 38.8567 4.87938 39H4.79523L4.46704 38.2518L7.63955 32.688ZM1.93408 38.2002V38.828H1V38.742C1.00561 38.742 1.03086 38.742 1.07574 38.742C1.11501 38.742 1.13464 38.742 1.13464 38.742C1.28612 38.742 1.42076 38.6962 1.53857 38.6044C1.65638 38.507 1.72651 38.3722 1.74895 38.2002H1.93408ZM2.30435 38.3378C2.30435 38.3436 2.30435 38.3493 2.30435 38.355C2.30435 38.3608 2.30435 38.3694 2.30435 38.3808C2.30435 38.4726 2.3352 38.5586 2.39691 38.6388C2.46424 38.7134 2.54278 38.7506 2.63254 38.7506H2.75877V38.828H2.24544V38.3378H2.30435ZM2.44741 32.688H2.52314L2.81767 33.5479L2.25386 38.828H1.6648L2.44741 32.688ZM2.52314 32.688L5.27489 37.3059L4.79523 39L2.30435 34.726L2.52314 32.688ZM7.71529 32.688L8.51473 38.828H7.15989L6.73913 34.8722L7.63955 32.688H7.71529ZM8.25386 38.2002H8.43057C8.45863 38.3722 8.53156 38.507 8.64937 38.6044C8.76718 38.6962 8.89902 38.742 9.04488 38.742C9.04488 38.742 9.06732 38.742 9.1122 38.742C9.15708 38.742 9.17952 38.742 9.17952 38.742V38.828H8.25386V38.2002ZM7.1094 38.3378H7.1683V38.828H6.65498V38.7506H6.78121C6.87658 38.7506 6.95512 38.7134 7.01683 38.6388C7.07854 38.5586 7.1094 38.4726 7.1094 38.3808C7.1094 38.3694 7.1094 38.3608 7.1094 38.355C7.1094 38.3493 7.1094 38.3436 7.1094 38.3378Z" fill="white"/>
<path d="M12.742 32.688C13.4152 32.688 13.9986 32.817 14.4923 33.0749C14.9916 33.3272 15.3759 33.6855 15.6452 34.1499C15.9201 34.6143 16.0575 35.1704 16.0575 35.8182C16.0575 36.4603 15.9201 37.0164 15.6452 37.4865C15.3759 37.9509 14.9916 38.312 14.4923 38.57C13.9986 38.8223 13.4152 38.9484 12.742 38.9484C12.0687 38.9484 11.4825 38.8223 10.9832 38.57C10.4895 38.312 10.108 37.9509 9.83873 37.4865C9.56945 37.0221 9.4348 36.466 9.4348 35.8182C9.4348 35.1761 9.56945 34.6229 9.83873 34.1585C10.108 33.6884 10.4895 33.3272 10.9832 33.0749C11.4825 32.817 12.0687 32.688 12.742 32.688ZM12.742 38.5872C13.1403 38.5872 13.4825 38.4754 13.7686 38.2518C14.0547 38.0225 14.2763 37.7015 14.4334 37.2887C14.5905 36.8759 14.669 36.3858 14.669 35.8182C14.669 35.2506 14.5905 34.7604 14.4334 34.3477C14.2763 33.9349 14.0547 33.6167 13.7686 33.3931C13.4825 33.1638 13.1403 33.0491 12.742 33.0491C12.3492 33.0491 12.007 33.1638 11.7153 33.3931C11.4292 33.6167 11.2076 33.9349 11.0505 34.3477C10.8934 34.7604 10.8149 35.2506 10.8149 35.8182C10.8149 36.3858 10.8934 36.8759 11.0505 37.2887C11.2076 37.7015 11.4292 38.0225 11.7153 38.2518C12.007 38.4754 12.3492 38.5872 12.742 38.5872Z" fill="white"/>
<path d="M17.1631 32.6794L22.5319 37.9079L22.6329 38.9484L17.264 33.7285L17.1631 32.6794ZM17.2051 38.2174V38.828H16.5067V38.742C16.5067 38.742 16.5319 38.742 16.5824 38.742C16.6329 38.742 16.661 38.742 16.6666 38.742C16.8068 38.742 16.9274 38.6904 17.0284 38.5872C17.1294 38.484 17.1799 38.3608 17.1799 38.2174H17.2051ZM18.3833 38.2174C18.3833 38.3608 18.4338 38.484 18.5347 38.5872C18.6357 38.6904 18.7563 38.742 18.8966 38.742C18.9022 38.742 18.9302 38.742 18.9807 38.742C19.0312 38.742 19.0565 38.742 19.0565 38.742V38.828H18.358V38.2174H18.3833ZM17.1631 32.6794L18.3748 33.9951L18.3833 38.828H17.1799V33.7543C17.1799 33.4333 17.1631 33.1753 17.1294 32.9803C17.0957 32.7797 17.0789 32.6794 17.0789 32.6794H17.1631ZM22.6077 32.8084V37.8477C22.6077 38.0598 22.6161 38.2518 22.6329 38.4238C22.6497 38.5901 22.6666 38.7191 22.6834 38.8108C22.7002 38.9025 22.7086 38.9484 22.7086 38.9484H22.6329L21.4127 37.5553V32.8084H22.6077ZM23.2809 32.8084V32.8944C23.2809 32.8944 23.2556 32.8944 23.2051 32.8944C23.1546 32.8944 23.1294 32.8944 23.1294 32.8944C22.9892 32.8944 22.8685 32.9459 22.7676 33.0491C22.6666 33.1466 22.6133 33.2699 22.6077 33.4189H22.5824V32.8084H23.2809ZM20.7311 32.8084H21.4295V33.4189H21.4127C21.4071 33.2699 21.3538 33.1466 21.2528 33.0491C21.1575 32.9459 21.0368 32.8944 20.891 32.8944C20.891 32.8944 20.8657 32.8944 20.8152 32.8944C20.7647 32.8944 20.7367 32.8944 20.7311 32.8944V32.8084Z" fill="white"/>
<path d="M26.465 32.6364L29.2167 38.7764H27.702L25.9516 34.2961L26.465 32.6364ZM24.6557 38.2002C24.6108 38.3149 24.6024 38.4124 24.6305 38.4926C24.6585 38.5729 24.7062 38.636 24.7735 38.6818C24.8408 38.722 24.9082 38.742 24.9755 38.742H25.0512V38.828H23.2504V38.742C23.2504 38.742 23.2644 38.742 23.2924 38.742C23.3149 38.742 23.3261 38.742 23.3261 38.742C23.4551 38.742 23.587 38.7019 23.7216 38.6216C23.8619 38.5356 23.9769 38.3952 24.0666 38.2002H24.6557ZM26.465 32.6364L26.4986 33.6855L24.4117 38.8022H23.7974L25.9769 33.7629C25.9937 33.7285 26.0218 33.6654 26.061 33.5737C26.1059 33.4763 26.1508 33.3673 26.1957 33.2469C26.2462 33.1265 26.291 33.0119 26.3303 32.903C26.3696 32.7883 26.3892 32.6994 26.3892 32.6364H26.465ZM27.3485 36.7813V37.1425H24.8745V36.7813H27.3485ZM27.4748 38.2002H28.9474C29.0428 38.3952 29.1578 38.5356 29.2924 38.6216C29.4271 38.7019 29.5589 38.742 29.688 38.742C29.688 38.742 29.6992 38.742 29.7216 38.742C29.7441 38.742 29.7553 38.742 29.7553 38.742V38.828H27.0793V38.742H27.155C27.2672 38.742 27.3654 38.6962 27.4495 38.6044C27.5337 38.507 27.5421 38.3722 27.4748 38.2002Z" fill="white"/>
<path d="M31.6975 32.8084H32.783C33.0355 32.8084 33.2823 32.837 33.5236 32.8944C33.7648 32.9517 33.978 33.0434 34.1631 33.1695C34.3539 33.2957 34.5053 33.4619 34.6175 33.6683C34.7297 33.8747 34.7858 34.1298 34.7858 34.4337C34.7858 34.6745 34.7353 34.9152 34.6344 35.156C34.539 35.3911 34.3903 35.5946 34.1884 35.7666C33.9864 35.9328 33.7255 36.0332 33.4057 36.0676C33.5853 36.1249 33.748 36.2281 33.8938 36.3772C34.0453 36.5262 34.1687 36.6753 34.2641 36.8243C34.2697 36.8358 34.3006 36.8874 34.3567 36.9791C34.4184 37.0708 34.4913 37.1855 34.5754 37.3231C34.6652 37.455 34.7578 37.5897 34.8532 37.7273C34.9485 37.8649 35.0355 37.9853 35.114 38.0885C35.2374 38.2432 35.3496 38.3694 35.4506 38.4668C35.5516 38.5586 35.6582 38.6274 35.7704 38.6732C35.8826 38.7134 36.0116 38.7363 36.1575 38.742V38.828H35.3328C35.0299 38.828 34.755 38.8022 34.5081 38.7506C34.2613 38.6933 34.0425 38.5987 33.8517 38.4668C33.661 38.335 33.4955 38.1573 33.3553 37.9337C33.3104 37.8649 33.2599 37.7789 33.2038 37.6757C33.1533 37.5668 33.1 37.4521 33.0439 37.3317C32.9878 37.2113 32.9317 37.0966 32.8756 36.9877C32.8251 36.8731 32.7802 36.7699 32.7409 36.6781C32.7017 36.5864 32.6736 36.5147 32.6568 36.4631C32.5839 36.2797 32.4969 36.1421 32.3959 36.0504C32.3006 35.9586 32.1968 35.9042 32.0846 35.887V35.801C32.1014 35.801 32.1351 35.801 32.1855 35.801C32.236 35.801 32.2893 35.801 32.3454 35.801C32.4969 35.801 32.6428 35.7695 32.783 35.7064C32.9289 35.6433 33.0579 35.5401 33.1701 35.3968C33.2823 35.2535 33.3609 35.0557 33.4057 34.8034C33.417 34.7518 33.4254 34.6917 33.431 34.6229C33.4422 34.5541 33.445 34.4767 33.4394 34.3907C33.4226 33.9779 33.3216 33.6769 33.1365 33.4877C32.9513 33.2928 32.7213 33.1925 32.4464 33.1867C32.3679 33.181 32.2809 33.181 32.1855 33.1867C32.0958 33.1867 32.0116 33.1867 31.9331 33.1867C31.8602 33.1867 31.8097 33.1867 31.7816 33.1867C31.7816 33.181 31.7732 33.1495 31.7564 33.0921C31.7452 33.0291 31.7311 32.966 31.7143 32.903C31.7031 32.8399 31.6975 32.8084 31.6975 32.8084ZM31.8069 32.8084V38.828H30.5446V32.8084H31.8069ZM30.5698 38.2002V38.828H29.8966V38.742C29.9022 38.742 29.9191 38.742 29.9471 38.742C29.9808 38.742 30.0004 38.742 30.006 38.742C30.1519 38.742 30.2753 38.6904 30.3763 38.5872C30.4829 38.4783 30.539 38.3493 30.5446 38.2002H30.5698ZM30.5698 33.4361H30.5446C30.539 33.2871 30.4829 33.1609 30.3763 33.0577C30.2753 32.9488 30.1519 32.8944 30.006 32.8944C30.0004 32.8944 29.9808 32.8944 29.9471 32.8944C29.9191 32.8944 29.9022 32.8944 29.8966 32.8944V32.8084H30.5698V33.4361ZM31.7816 38.2002H31.8069C31.8069 38.3493 31.8602 38.4783 31.9668 38.5872C32.0733 38.6904 32.1996 38.742 32.3454 38.742C32.3567 38.742 32.3763 38.742 32.4043 38.742C32.4324 38.742 32.4464 38.742 32.4464 38.742V38.828H31.7816V38.2002Z" fill="white"/>
<path d="M41.6339 36.317L41.7096 37.7961C41.5862 38.0082 41.4207 38.2003 41.2131 38.3722C41.0055 38.5442 40.7475 38.6847 40.4389 38.7936C40.1303 38.8968 39.7657 38.9484 39.3449 38.9484C38.6605 38.9427 38.0602 38.8165 37.5441 38.57C37.0336 38.3178 36.6381 37.9595 36.3576 37.4951C36.0771 37.0307 35.9368 36.4689 35.9368 35.8096C35.9368 35.1675 36.0742 34.6143 36.3491 34.1499C36.624 33.6798 37.0167 33.3186 37.5273 33.0663C38.0434 32.8141 38.6577 32.688 39.3702 32.688C39.819 32.688 40.2201 32.7338 40.5735 32.8256C40.9326 32.9173 41.2327 33.0291 41.474 33.1609L41.4824 34.6315H41.4066C41.2552 34.0639 41.0083 33.6597 40.6661 33.4189C40.3239 33.1724 39.9228 33.0491 39.4627 33.0491C39.0139 33.0491 38.6296 33.1609 38.3099 33.3845C37.9901 33.6081 37.7432 33.9234 37.5693 34.3305C37.3954 34.7375 37.3085 35.2248 37.3085 35.7924C37.3085 36.36 37.3898 36.8501 37.5525 37.2629C37.7208 37.6757 37.9564 37.9967 38.2594 38.226C38.5679 38.4554 38.9298 38.5758 39.3449 38.5872C39.7769 38.5872 40.1416 38.5156 40.4389 38.3722C40.7362 38.2289 40.9747 37.991 41.1542 37.6585C41.3393 37.326 41.4768 36.8788 41.5665 36.317H41.6339Z" fill="white"/>
<path d="M48.352 32.8084V38.828H47.0898V32.8084H48.352ZM44.3633 32.8084V38.828H43.101V32.8084H44.3633ZM47.1655 35.6462V36.016H44.2791V35.6462H47.1655ZM43.1262 38.2002V38.828H42.453V38.742C42.453 38.742 42.4698 38.742 42.5035 38.742C42.5428 38.742 42.5624 38.742 42.5624 38.742C42.7083 38.742 42.8317 38.6904 42.9327 38.5872C43.0393 38.4783 43.0954 38.3493 43.101 38.2002H43.1262ZM43.1262 33.4361H43.101C43.0954 33.2871 43.0393 33.1609 42.9327 33.0577C42.8317 32.9488 42.7083 32.8944 42.5624 32.8944C42.5624 32.8944 42.5428 32.8944 42.5035 32.8944C42.4698 32.8944 42.453 32.8944 42.453 32.8944V32.8084H43.1262V33.4361ZM44.338 38.2002H44.3633C44.3689 38.3493 44.4222 38.4783 44.5231 38.5872C44.6297 38.6904 44.756 38.742 44.9018 38.742C44.9018 38.742 44.9187 38.742 44.9523 38.742C44.986 38.742 45.0056 38.742 45.0112 38.742V38.828H44.338V38.2002ZM44.338 33.4361V32.8084H45.0112V32.8944C45.0056 32.8944 44.986 32.8944 44.9523 32.8944C44.9187 32.8944 44.9018 32.8944 44.9018 32.8944C44.756 32.8944 44.6297 32.9488 44.5231 33.0577C44.4222 33.1609 44.3689 33.2871 44.3633 33.4361H44.338ZM47.115 38.2002V38.828H46.4418V38.742C46.4474 38.742 46.467 38.742 46.5007 38.742C46.5344 38.742 46.5512 38.742 46.5512 38.742C46.6971 38.742 46.8233 38.6904 46.9299 38.5872C47.0365 38.4783 47.0898 38.3493 47.0898 38.2002H47.115ZM47.115 33.4361H47.0898C47.0898 33.2871 47.0365 33.1609 46.9299 33.0577C46.8233 32.9488 46.6971 32.8944 46.5512 32.8944C46.5512 32.8944 46.5344 32.8944 46.5007 32.8944C46.467 32.8944 46.4474 32.8944 46.4418 32.8944V32.8084H47.115V33.4361ZM48.3268 38.2002H48.352C48.3576 38.3493 48.4109 38.4783 48.5119 38.5872C48.6185 38.6904 48.7447 38.742 48.8906 38.742C48.8906 38.742 48.9074 38.742 48.9411 38.742C48.9804 38.742 49 38.742 49 38.742V38.828H48.3268V38.2002ZM48.3268 33.4361V32.8084H49V32.8944C49 32.8944 48.9804 32.8944 48.9411 32.8944C48.9074 32.8944 48.8906 32.8944 48.8906 32.8944C48.7447 32.8944 48.6185 32.9488 48.5119 33.0577C48.4109 33.1609 48.3576 33.2871 48.352 33.4361H48.3268Z" fill="white"/>
</svg>
